Coordinates
version=1
nRows=43
nColumns=12
inDegrees=yes

Units are S.I. units (second, meters, Newtons, ...)
Angles are in degrees

endheader
time	SC_y	SC_z	SC_x	AC_y	AC_z	AC_x	GH_y	GH_z	GH_yy	EL_x	PS_y
       0.0               -36.0          4.697          39.12          32.82          6.506         -9.624         -39.65           78.1          112.5          126.8          44.22
   0.01202               -36.0          4.698          39.13          32.82          6.502         -9.623         -39.63           78.1          112.5          126.8          44.23
   0.02403               -36.0            4.7          39.13          32.82          6.498         -9.623         -39.62           78.1          112.5          126.8          44.23
   0.03605               -36.0          4.702          39.13          32.82          6.494         -9.623          -39.6           78.1          112.4          126.8          44.24
   0.04806               -36.0          4.704          39.13          32.82           6.49         -9.622         -39.58           78.1          112.4          126.8          44.24
   0.06008              -35.99          4.707          39.13          32.82          6.485         -9.622         -39.55           78.1          112.4          126.8          44.25
    0.0721              -35.99          4.709          39.14          32.82           6.48         -9.622         -39.53           78.1          112.4          126.8          44.25
   0.08411              -35.99          4.712          39.14          32.82          6.475         -9.621         -39.51           78.1          112.3          126.8          44.26
   0.09613              -35.99          4.715          39.14          32.82          6.469         -9.621         -39.48           78.1          112.3          126.7          44.26
    0.1081              -35.98          4.718          39.15          32.82          6.463          -9.62         -39.45           78.1          112.3          126.7          44.27
    0.1202              -35.98          4.721          39.15          32.82          6.456          -9.62         -39.42           78.1          112.3          126.7          44.27
    0.1322              -35.98          4.724          39.15          32.82          6.449         -9.619         -39.39           78.1          112.2          126.7          44.28
    0.1442              -35.98          4.728          39.16          32.82          6.442         -9.618         -39.36           78.1          112.2          126.7          44.29
    0.1562              -35.97          4.732          39.16          32.82          6.433         -9.618         -39.32           78.1          112.1          126.7           44.3
    0.1682              -35.97          4.736          39.17          32.82          6.424         -9.617         -39.28           78.1          112.1          126.7          44.31
    0.1802              -35.96          4.741          39.17          32.82          6.415         -9.616         -39.23           78.1          112.0          126.7          44.32
    0.1923              -35.96          4.746          39.18          32.82          6.404         -9.615         -39.19           78.1          112.0          126.6          44.33
    0.2043              -35.95          4.752          39.18          32.82          6.393         -9.614         -39.13           78.1          111.9          126.6          44.34
    0.2163              -35.95          4.758          39.19          32.82           6.38         -9.613         -39.08           78.1          111.9          126.6          44.35
    0.2283              -35.94          4.764          39.19          32.83          6.367         -9.612         -39.01           78.1          111.8          126.6          44.37
    0.2403              -35.94          4.772           39.2          32.83          6.352         -9.611         -38.94           78.1          111.7          126.6          44.38
    0.2523              -35.93           4.78          39.21          32.83          6.335         -9.609         -38.87           78.1          111.7          126.5           44.4
    0.2644              -35.92          4.789          39.22          32.83          6.317         -9.608         -38.78           78.1          111.6          126.5          44.42
    0.2764              -35.91          4.798          39.23          32.83          6.297         -9.606         -38.69           78.1          111.5          126.5          44.44
    0.2884               -35.9          4.809          39.24          32.83          6.274         -9.604         -38.59           78.1          111.4          126.4          44.46
    0.3004              -35.89          4.822          39.25          32.83          6.249         -9.602         -38.47          78.09          111.2          126.4          44.49
    0.3124              -35.88          4.835          39.27          32.83          6.221           -9.6         -38.35          78.09          111.1          126.3          44.52
    0.3244              -35.87          4.851          39.29          32.83          6.189         -9.597          -38.2          78.09          110.9          126.3          44.55
    0.3365              -35.85          4.868           39.3          32.84          6.153         -9.594         -38.04          78.09          110.8          126.2          44.59
    0.3485              -35.83          4.888          39.32          32.84          6.113          -9.59         -37.85          78.09          110.6          126.2          44.63
    0.3605              -35.81           4.91          39.35          32.84          6.067         -9.586         -37.64          78.09          110.3          126.1          44.68
    0.3725              -35.79          4.936          39.37          32.84          6.013         -9.582         -37.39          78.09          110.1          126.0          44.73
    0.3845              -35.76          4.966          39.41          32.85          5.952         -9.577         -37.11          78.08          109.8          125.9          44.79
    0.3965              -35.73          5.001          39.44          32.85          5.881         -9.571         -36.79          78.08          109.4          125.8          44.87
    0.4086               -35.7          5.041          39.48          32.85          5.797         -9.564          -36.4          78.08          109.0          125.7          44.95
    0.4206              -35.66          5.089          39.54          32.86          5.699         -9.555         -35.95          78.08          108.5          125.5          45.05
    0.4326               -35.6          5.146          39.59          32.86          5.582         -9.545         -35.42          78.07          107.9          125.3          45.17
    0.4446              -35.54          5.214          39.67          32.87          5.442         -9.534         -34.78          78.07          107.2          125.1          45.32
    0.4566              -35.47          5.297          39.75          32.88          5.272         -9.519          -34.0          78.06          106.4          124.8          45.49
    0.4686              -35.38          5.398          39.86          32.89          5.065         -9.502         -33.05          78.05          105.4          124.5           45.7
    0.4806              -35.27          5.522          39.99           32.9           4.81          -9.48         -31.88          78.04          104.1          124.0          45.97
    0.4927              -35.13          5.677          40.15          32.92          4.491         -9.453         -30.42          78.03          102.5          123.5          46.29
    0.5047              -34.96          5.873          40.36          32.94          4.089         -9.419         -28.58          78.02          100.5          122.9           46.7
